<svg xmlns="http://www.w3.org/2000/svg" viewBox="0 0 256 256" width="256" height="256" role="img" aria-label="短链接项目图标"> <defs> <linearGradient id="bg" x1="0" y1="0" x2="1" y2="1"> <stop offset="0%" stop-color="#4F8CFF"/> <stop offset="100%" stop-color="#6A5CFF"/> </linearGradient> <filter id="shadow" x="-20%" y="-20%" width="140%" height="140%"> <feDropShadow dx="0" dy="8" stdDeviation="10" flood-color="#1E2A78" flood-opacity="0.18"/> </filter> </defs> <rect x="16" y="16" width="224" height="224" rx="56" fill="url(#bg)"/> <g filter="url(#shadow)" fill="none" stroke="#FFFFFF" stroke-width="20" stroke-linecap="round" stroke-linejoin="round"> <path d="M98 96h-18c-24 0-44 20-44 44s20 44 44 44h34c24 0 44-20 44-44"/> <path d="M158 160h18c24 0 44-20 44-44s-20-44-44-44h-34c-24 0-44 20-44 44"/> <path d="M96 128h64"/> </g> <g fill="#FFFFFF"> <circle cx="188" cy="68" r="6" opacity="0.95"/> <path d="M196 44l4.5 12.5L213 61l-12.5 4.5L196 78l-4.5-12.5L179 61l12.5-4.5L196 44z" opacity="0.9"/> </g> </svg>